HIERARCHY
ROOT Hips
{
    OFFSET 0.000000 0.000000 0.000000
    CHANNELS 6 Xposition Yposition Zposition Zrotation Xrotation Yrotation
    JOINT Spine
    {
        OFFSET -0.000000 7.236184 0.000000
        CHANNELS 3 Zrotation Xrotation Yrotation
        JOINT Spine1
        {
            OFFSET -0.000000 20.420147 0.000000
            CHANNELS 3 Zrotation Xrotation Yrotation
            JOINT Neck
            {
                OFFSET -0.000000 20.336288 1.848754
                CHANNELS 3 Zrotation Xrotation Yrotation
                JOINT Head
                {
                    OFFSET -0.000000 12.354461 -1.764923
                    CHANNELS 3 Zrotation Xrotation Yrotation
                    End Site
                    {
                        OFFSET -0.000000 22.061537 0.000000
                    }
                }
            }
            JOINT LeftShoulder
            {
                OFFSET 3.573296 18.396038 -0.314103
                CHANNELS 3 Zrotation Xrotation Yrotation
                JOINT LeftArm
                {
                    OFFSET 10.880760 0.000000 0.000000
                    CHANNELS 3 Zrotation Xrotation Yrotation
                    JOINT LeftForeArm
                    {
                        OFFSET 27.185530 0.000000 0.000000
                        CHANNELS 3 Zrotation Xrotation Yrotation
                        JOINT LeftHand
                        {
                            OFFSET 27.825975 0.000000 0.000000
                            CHANNELS 3 Zrotation Xrotation Yrotation
                            End Site
                            {
                                OFFSET 13.236923 0.000000 0.000000
                            }
                        }
                    }
                }
            }
            JOINT RightShoulder
            {
                OFFSET -3.474926 18.396038 -0.314103
                CHANNELS 3 Zrotation Xrotation Yrotation
                JOINT RightArm
                {
                    OFFSET -10.880760 0.000000 0.000000
                    CHANNELS 3 Zrotation Xrotation Yrotation
                    JOINT RightForeArm
                    {
                        OFFSET -27.185530 0.000000 0.000000
                        CHANNELS 3 Zrotation Xrotation Yrotation
                        JOINT RightHand
                        {
                            OFFSET -27.825975 0.000000 0.000000
                            CHANNELS 3 Zrotation Xrotation Yrotation
                            End Site
                            {
                                OFFSET -13.236923 0.000000 0.000000
                            }
                        }
                    }
                }
            }
        }
    }
    JOINT LeftUpLeg
    {
        OFFSET 8.824615 0.000000 0.000000
        CHANNELS 3 Zrotation Xrotation Yrotation
        JOINT LeftLeg
        {
            OFFSET -0.000000 -35.111282 0.000000
            CHANNELS 3 Zrotation Xrotation Yrotation
            JOINT LeftFoot
            {
                OFFSET -0.000000 -42.324711 0.000000
                CHANNELS 3 Zrotation Xrotation Yrotation
                JOINT LeftToeBase
                {
                    OFFSET -0.000000 -5.735999 13.236923
                    CHANNELS 3 Zrotation Xrotation Yrotation
                    End Site
                    {
                        OFFSET -0.000000 0.000000 3.529846
                    }
                }
            }
        }
    }
    JOINT RightUpLeg
    {
        OFFSET -8.824615 0.000000 0.000000
        CHANNELS 3 Zrotation Xrotation Yrotation
        JOINT RightLeg
        {
            OFFSET -0.000000 -35.111282 0.000000
            CHANNELS 3 Zrotation Xrotation Yrotation
            JOINT RightFoot
            {
                OFFSET -0.000000 -42.324711 0.000000
                CHANNELS 3 Zrotation Xrotation Yrotation
                JOINT RightToeBase
                {
                    OFFSET -0.000000 -5.735999 13.236923
                    CHANNELS 3 Zrotation Xrotation Yrotation
                    End Site
                    {
                        OFFSET -0.000000 0.000000 3.529846
                    }
                }
            }
        }
    }
}
MOTION
Frames:    14
Frame Time:    0.008333
-22.336296    80.976593    100.920738    -0.661094    -6.974635    -175.682663    -1.312049    -11.269426    0.020221    0.550436    6.488717    0.118347    2.523620    7.330861    -3.537308    5.343772    -6.659291    -2.824739    0.595313    17.175333    -3.301228    -40.376606    49.308487    -44.678936    -0.254070    -5.742888    -22.000784    15.439053    -5.549964    1.794555    7.217100    17.841158    -6.272633    32.898769    50.834122    43.470070    -1.835709    -10.667683    31.963865    -8.840297    -10.360619    2.760590    -1.334848    -13.036461    -6.610056    -0.808317    19.945383    0.435192    -1.111002    -11.643248    -6.512269    -0.070895    -0.088483    0.078597    -1.193841    -4.072101    1.408625    3.438050    6.775403    4.216497    -3.170851    -6.755575    -16.049936    -0.921129    -0.068249    0.996363
-22.335175    80.974915    100.899574    -0.663769    -6.985356    -175.665909    -1.307660    -11.284537    0.024033    0.545267    6.489606    0.122170    2.531281    7.332859    -3.543422    5.334183    -6.674406    -2.832897    0.579287    17.199699    -3.258025    -40.368195    49.288513    -44.694683    -0.212465    -5.790815    -22.381334    15.142556    -5.605385    1.718336    7.211514    17.832872    -6.272767    32.801010    50.866035    43.551544    -1.885480    -10.689593    32.400646    -8.584280    -10.355705    2.773402    -1.335062    -13.027744    -6.586566    -0.800909    19.937550    0.381324    -1.112470    -11.653672    -6.503731    -0.072326    -0.089471    0.080184    -1.195132    -4.065590    1.404687    3.438285    6.774388    4.190766    -3.177893    -6.768928    -16.040506    -0.921493    -0.071770    0.996761
-22.333937    80.973312    100.878288    -0.666058    -6.994134    -175.649109    -1.302039    -11.297590    0.027913    0.539582    6.491381    0.126514    2.537303    7.334450    -3.550152    5.326653    -6.690409    -2.841160    0.560705    17.225422    -3.212606    -40.350548    49.272232    -44.714108    -0.168596    -5.840708    -22.773800    14.840556    -5.661882    1.640920    7.204600    17.823309    -6.272772    32.705303    50.899090    43.631023    -1.934778    -10.711288    32.843704    -8.325813    -10.349901    2.783671    -1.333595    -13.015642    -6.563581    -0.795193    19.927088    0.329304    -1.114297    -11.663222    -6.496470    -0.073993    -0.090416    0.082032    -1.195662    -4.057893    1.400436    3.438402    6.775543    4.173217    -3.186087    -6.783121    -16.039143    -0.921718    -0.075688    0.997010
-22.332569    80.971809    100.856491    -0.668153    -7.001326    -175.631836    -1.295304    -11.309167    0.032758    0.533529    6.494338    0.130670    2.541829    7.335505    -3.557651    5.320763    -6.707640    -2.849699    0.538357    17.251751    -3.164461    -40.322601    49.260506    -44.737015    -0.121210    -5.890461    -23.184656    14.536734    -5.716710    1.564546    7.196380    17.812237    -6.273010    32.609253    50.934322    43.710194    -1.983987    -10.734391    33.301357    -8.058616    -10.344490    2.792601    -1.330550    -13.000084    -6.542697    -0.791934    19.913458    0.280079    -1.116452    -11.671689    -6.490045    -0.075679    -0.091454    0.083901    -1.195599    -4.049258    1.395868    3.438390    6.779409    4.164468    -3.195951    -6.798624    -16.047066    -0.921722    -0.080302    0.997020
-22.331106    80.970421    100.834694    -0.670064    -7.006828    -175.614365    -1.287462    -11.319014    0.037622    0.526913    6.498507    0.135448    2.544920    7.336084    -3.565681    5.316403    -6.726026    -2.858346    0.512302    17.277222    -3.114996    -40.284828    49.254005    -44.762337    -0.071144    -5.937649    -23.605429    14.239377    -5.766794    1.494269    7.187407    17.799742    -6.273143    32.515114    50.970425    43.786919    -2.030990    -10.758754    33.764881    -7.786263    -10.340189    2.800457    -1.326202    -12.981442    -6.525194    -0.791205    19.897011    0.235965    -1.119224    -11.678802    -6.485099    -0.077241    -0.093116    0.085634    -1.194782    -4.040379    1.390719    3.437836    6.786476    4.163046    -3.206861    -6.815214    -16.062185    -0.921586    -0.085621    0.996881
-22.329609    80.969101    100.812790    -0.672520    -7.011478    -175.596573    -1.279152    -11.327680    0.043022    0.519799    6.503765    0.140426    2.546800    7.335852    -3.574200    5.312944    -6.745484    -2.867220    0.481963    17.301237    -3.063406    -40.236332    49.253620    -44.790550    -0.017681    -5.982277    -24.040604    13.944165    -5.811769    1.432779    7.177766    17.785725    -6.273417    32.420361    51.008251    43.863049    -2.075971    -10.785158    34.240070    -7.503573    -10.337535    2.807070    -1.321509    -12.960497    -6.511456    -0.792943    19.877672    0.197317    -1.122686    -11.684388    -6.481786    -0.078700    -0.095327    0.087251    -1.194187    -4.032464    1.385180    3.437075    6.797687    4.167443    -3.218955    -6.833313    -16.083477    -0.921157    -0.091618    0.996426
-22.328085    80.967796    100.790771    -0.675817    -7.015779    -175.578308    -1.270591    -11.335477    0.048611    0.512144    6.509995    0.145993    2.548150    7.334851    -3.583115    5.309029    -6.766132    -2.876497    0.447602    17.323643    -3.009784    -40.177032    49.259583    -44.822350    0.039166    -6.024406    -24.492409    13.647353    -5.851587    1.381315    7.167366    17.770266    -6.273528    32.324131    51.047573    43.939476    -2.118290    -10.813441    34.730442    -7.207507    -10.336370    2.811889    -1.316902    -12.937873    -6.501822    -0.797170    19.855770    0.164241    -1.126895    -11.688539    -6.480096    -0.079837    -0.098304    0.088512    -1.193721    -4.026831    1.378403    3.435304    6.814460    4.175130    -3.231669    -6.853474    -16.107780    -0.920380    -0.098674    0.995594
-22.326628    80.966484    100.769333    -0.680374    -7.019896    -175.560074    -1.262411    -11.342516    0.054585    0.503992    6.517203    0.151505    2.550466    7.332848    -3.591791    5.302282    -6.787108    -2.886156    0.411617    17.342318    -2.956746    -40.111797    49.272572    -44.854824    0.097657    -6.062899    -24.946823    13.355734    -5.885341    1.340694    7.156817    17.753822    -6.273008    32.228027    51.087730    44.014729    -2.156998    -10.842723    35.221748    -6.905533    -10.336620    2.814374    -1.313259    -12.914768    -6.495946    -0.803325    19.832283    0.136789    -1.131696    -11.691116    -6.479888    -0.080644    -0.102072    0.089407    -1.194097    -4.024312    1.371050    3.432911    6.836860    4.184971    -3.244733    -6.875071    -16.133968    -0.919177    -0.106283    0.994304
-22.325239    80.965088    100.748131    -0.686583    -7.024111    -175.541336    -1.254683    -11.348613    0.060641    0.495095    6.525123    0.157399    2.555602    7.328674    -3.600042    5.289161    -6.807561    -2.897000    0.375772    17.357082    -2.904888    -40.043545    49.292870    -44.887363    0.158694    -6.098558    -25.411167    13.063184    -5.914089    1.307961    7.145861    17.736355    -6.272130    32.128357    51.129868    44.092434    -2.193014    -10.873120    35.723316    -6.591650    -10.337845    2.814918    -1.311180    -12.891459    -6.492261    -0.810476    19.807724    0.112987    -1.137559    -11.692494    -6.481663    -0.080998    -0.106696    0.089800    -1.195629    -4.025701    1.362910    3.429846    6.866403    4.196150    -3.258129    -6.898877    -16.161703    -0.917446    -0.115669    0.992443
-22.323933    80.963577    100.727394    -0.694541    -7.028365    -175.522034    -1.247459    -11.353851    0.066761    0.485184    6.533944    0.163310    2.564690    7.322337    -3.607566    5.268122    -6.827161    -2.909063    0.343526    17.366756    -2.856905    -39.978561    49.320492    -44.917057    0.221572    -6.130684    -25.879084    12.773208    -5.937498    1.281165    7.134871    17.717653    -6.270118    32.025715    51.174068    44.171883    -2.226443    -10.903975    36.229385    -6.269362    -10.339586    2.814462    -1.310844    -12.868811    -6.489109    -0.818094    19.783556    0.090202    -1.144290    -11.693151    -6.484514    -0.080955    -0.112021    0.089754    -1.198310    -4.031602    1.353790    3.425881    6.904143    4.207526    -3.271532    -6.925331    -16.189646    -0.915202    -0.125972    0.990031
-22.322678    80.961914    100.707039    -0.704211    -7.032354    -175.501892    -1.240398    -11.357863    0.072983    0.473743    6.543795    0.169163    2.577135    7.313920    -3.614493    5.240841    -6.845881    -2.922183    0.317786    17.372007    -2.813854    -39.918385    49.355408    -44.945572    0.286267    -6.159297    -26.349554    12.486069    -5.955829    1.258283    7.124097    17.697922    -6.266809    31.918268    51.220798    44.254993    -2.258078    -10.935181    36.740383    -5.938375    -10.341664    2.814553    -1.312436    -12.847008    -6.484081    -0.824915    19.760672    0.065370    -1.152115    -11.693322    -6.488281    -0.080300    -0.118047    0.089028    -1.202321    -4.042145    1.344477    3.421668    6.951010    4.219820    -3.285347    -6.954793    -16.219742    -0.912398    -0.137836    0.987013
-22.321468    80.960098    100.687241    -0.715623    -7.036095    -175.480667    -1.233467    -11.360470    0.078806    0.460438    6.554655    0.175242    2.591177    7.303733    -3.621187    5.210845    -6.863755    -2.935786    0.300273    17.374004    -2.775890    -39.861511    49.397663    -44.976807    0.352208    -6.184208    -26.817509    12.204821    -5.969143    1.238229    7.114028    17.676943    -6.262092    31.805702    51.270317    44.342129    -2.288387    -10.965842    37.252373    -5.601464    -10.343231    2.816647    -1.316063    -12.826901    -6.475968    -0.830557    19.740412    0.037099    -1.161010    -11.693365    -6.492934    -0.078964    -0.124971    0.087549    -1.207614    -4.058065    1.334574    3.417064    7.008084    4.232654    -3.299304    -6.987700    -16.251530    -0.909264    -0.151171    0.983641
-22.320261    80.958153    100.668274    -0.728395    -7.039352    -175.458496    -1.226221    -11.361680    0.084547    0.444816    6.566822    0.181075    2.605753    7.292382    -3.627713    5.180976    -6.881201    -2.949327    0.291882    17.374754    -2.742824    -39.804131    49.445976    -45.015896    0.417777    -6.204939    -27.273829    11.934523    -5.977403    1.220349    7.105175    17.655153    -6.255847    31.688335    51.322239    44.433552    -2.318288    -10.994756    37.756683    -5.263805    -10.343157    2.821392    -1.321401    -12.809141    -6.463575    -0.834602    19.723831    0.004304    -1.171039    -11.693349    -6.498269    -0.076818    -0.132368    0.085171    -1.214047    -4.079533    1.324584    3.412573    7.075775    4.246932    -3.313427    -7.024179    -16.286280    -0.905828    -0.165712    0.979943
-22.318968    80.956032    100.649811    -0.742683    -7.042266    -175.434738    -1.218223    -11.361296    0.090263    0.426181    6.580452    0.186939    2.620264    7.279690    -3.634505    5.152591    -6.898610    -2.962845    0.291916    17.375210    -2.713515    -39.740314    49.502003    -45.067619    0.484428    -6.221868    -27.726210    11.671152    -5.980745    1.203750    7.097789    17.631706    -6.247854    31.563049    51.378193    44.531639    -2.349439    -11.021161    38.263451    -4.918750    -10.339638    2.829009    -1.328491    -12.794055    -6.445734    -0.836848    19.711521    -0.034587    -1.182598    -11.693335    -6.504467    -0.073569    -0.140976    0.081569    -1.221684    -4.107901    1.314314    3.408270    7.157010    4.263822    -3.328069    -7.065486    -16.325949    -0.902152    -0.182040    0.975988
